<svg width="35" height="35" viewBox="0 0 57 57" fill="none" xmlns="http://www.w3.org/2000/svg">
<path d="M57 28.5C57 12.761 44.239 -5.57801e-07 28.5 -1.24577e-06C12.761 -1.93375e-06 -5.57801e-07 12.761 -1.24577e-06 28.5C-1.93379e-06 44.24 12.761 57 28.5 57C44.239 57 57 44.24 57 28.5ZM23.085 38.225C22.5 37.637 22.503 36.688 23.089 36.104L30.745 28.48L23.07 20.542C22.788 20.251 22.648 19.875 22.648 19.499C22.648 19.106 22.801 18.715 23.105 18.421C23.701 17.845 24.65 17.86 25.226 18.456L34.957 28.519L25.207 38.229C24.62 38.814 23.67 38.812 23.085 38.225Z" fill="white"/>
</svg>
