<svg width="28" height="16" viewBox="0 0 32 20" fill="none" xmlns="http://www.w3.org/2000/svg">
<path d="M1.90476 0C0.856152 0 0 0.864385 0 1.92308V18.0769C0 19.1356 0.856152 20 1.90476 20H30.0952C31.1438 20 32 19.1356 32 18.0769V1.92308C32 0.864385 31.1438 0 30.0952 0H1.90476ZM1.90476 0.769231H30.0952C30.2552 0.769231 30.4105 0.807692 30.5476 0.865385L16.9166 13.125C16.434 13.5589 15.566 13.5589 15.0834 13.125L1.45238 0.865385C1.58952 0.807654 1.74484 0.769231 1.90476 0.769231ZM0.892876 1.39423L10.8571 10.3606L0.892876 18.6178C0.809714 18.457 0.761905 18.2738 0.761905 18.0769V1.92308C0.761905 1.72781 0.810971 1.55408 0.892876 1.39423ZM31.1071 1.39423C31.189 1.55408 31.2381 1.72781 31.2381 1.92308V18.0769C31.2381 18.2738 31.1903 18.457 31.1071 18.6178L21.1429 10.3606L31.1071 1.39423ZM11.4286 10.8774L14.5714 13.7019C15.3676 14.4177 16.6324 14.4177 17.4286 13.7019L20.5714 10.8774L30.5476 19.1466C30.4105 19.2044 30.2552 19.2308 30.0952 19.2308H1.90476C1.74484 19.2308 1.58952 19.2043 1.45238 19.1466L11.4286 10.8774Z" fill="#083344"/>
</svg>
