<svg width="190" height="74" viewBox="0 0 190 74" fill="none" xmlns="http://www.w3.org/2000/svg">
<path d="M12.3975 16.2214C16.6718 17.031 21.2621 16.6262 25.2198 14.5438C28.9666 12.4614 32.9768 9.10549 37.462 9.62628C40.3639 10.0895 42.5273 13.0398 42.8972 16.1062C43.7415 25.9989 39.2562 38.4955 34.1377 46.4794C36.4595 37.9171 38.887 29.2972 39.7313 20.3877C39.8371 18.5942 39.9954 16.6854 39.362 15.007C38.0428 11.9407 35.4576 12.2878 32.9243 13.2134C30.18 14.0814 27.6474 15.643 24.9038 16.627C20.8396 17.9574 16.3544 17.7838 12.3975 16.2214ZM3.21545 20.5029C3.37379 17.379 4.1122 13.271 7.11986 12.1143C8.59742 11.5359 10.18 12.1719 11.6051 12.7502C13.9794 13.5598 16.4595 14.139 18.9396 14.2542C17.0403 13.155 14.2961 11.5927 12.4493 10.4935C11.2884 9.74148 10.0217 9.16309 8.64995 9.04709C5.58976 8.6423 2.68718 10.8983 1.47376 13.8486C-3.69734 27.0389 5.80064 45.6098 13.5576 55.5609C8.70322 44.5698 3.11038 32.9988 3.21545 20.5029ZM25.9057 41.6771C24.3756 40.1147 22.1589 39.8259 20.207 40.2883C15.7218 41.5035 15.4577 47.057 16.8302 50.9913C17.3052 48.041 17.7269 43.181 21.3154 43.297C23.373 43.297 24.323 44.3386 24.7455 46.4786C24.8513 46.8834 24.9038 47.3466 24.9564 47.7514C25.3256 52.0905 24.5872 56.6609 24.2705 61C27.1716 56.3137 30.2325 46.305 25.9057 41.6771Z" fill="white"/>
<path d="M48.8693 39V9.90909H67.5057V14.3267H54.1392V22.2244H66.2273V26.642H54.1392V39H48.8693ZM80.1371 39.4261C77.9496 39.4261 76.0604 38.9716 74.4695 38.0625C72.888 37.1439 71.6712 35.8466 70.8189 34.1705C69.9666 32.4848 69.5405 30.5009 69.5405 28.2188C69.5405 25.9744 69.9666 24.0047 70.8189 22.3097C71.6806 20.6051 72.8833 19.2794 74.4268 18.3324C75.9704 17.3759 77.7839 16.8977 79.8672 16.8977C81.2119 16.8977 82.4808 17.1155 83.674 17.5511C84.8767 17.9773 85.9373 18.6402 86.8558 19.5398C87.7839 20.4394 88.513 21.5852 89.0433 22.9773C89.5736 24.3598 89.8388 26.0076 89.8388 27.9205V29.4972H71.9553V26.0312H84.9098C84.9003 25.0464 84.6873 24.1705 84.2706 23.4034C83.8539 22.6269 83.2715 22.0161 82.5234 21.571C81.7848 21.1259 80.9231 20.9034 79.9382 20.9034C78.8871 20.9034 77.9638 21.1591 77.1683 21.6705C76.3729 22.1723 75.7526 22.8352 75.3075 23.6591C74.8719 24.4735 74.6494 25.3684 74.6399 26.3438V29.3693C74.6399 30.6383 74.8719 31.7273 75.3359 32.6364C75.8 33.536 76.4486 34.2273 77.282 34.7102C78.1153 35.1837 79.0907 35.4205 80.2081 35.4205C80.9562 35.4205 81.6333 35.3163 82.2393 35.108C82.8454 34.8902 83.371 34.5729 83.8161 34.1562C84.2611 33.7396 84.5973 33.2235 84.8246 32.608L89.6257 33.1477C89.3227 34.4167 88.745 35.5246 87.8928 36.4716C87.05 37.4091 85.9704 38.1383 84.6541 38.6591C83.3378 39.1705 81.8321 39.4261 80.1371 39.4261ZM94.1889 39V17.1818H99.1747V20.8182H99.402C99.7997 19.5587 100.482 18.5881 101.447 17.9062C102.423 17.215 103.536 16.8693 104.786 16.8693C105.07 16.8693 105.387 16.8835 105.737 16.9119C106.097 16.9309 106.395 16.964 106.632 17.0114V21.7415C106.414 21.6657 106.069 21.5994 105.595 21.5426C105.131 21.4763 104.681 21.4432 104.246 21.4432C103.308 21.4432 102.465 21.6468 101.717 22.054C100.979 22.4517 100.396 23.0057 99.9702 23.7159C99.544 24.4261 99.331 25.2453 99.331 26.1733V39H94.1889ZM110.048 39V17.1818H114.963V20.8892H115.219C115.673 19.6392 116.426 18.6638 117.477 17.9631C118.528 17.2528 119.783 16.8977 121.241 16.8977C122.719 16.8977 123.964 17.2576 124.977 17.9773C126 18.6875 126.72 19.6581 127.136 20.8892H127.364C127.847 19.6771 128.661 18.7112 129.807 17.9915C130.962 17.2623 132.33 16.8977 133.912 16.8977C135.92 16.8977 137.558 17.5322 138.827 18.8011C140.096 20.0701 140.73 21.9214 140.73 24.3551V39H135.574V25.1506C135.574 23.7964 135.214 22.8068 134.494 22.1818C133.775 21.5473 132.894 21.2301 131.852 21.2301C130.612 21.2301 129.641 21.6184 128.94 22.3949C128.249 23.1619 127.903 24.161 127.903 25.392V39H122.861V24.9375C122.861 23.8106 122.52 22.911 121.838 22.2386C121.166 21.5663 120.285 21.2301 119.196 21.2301C118.457 21.2301 117.785 21.4195 117.179 21.7983C116.573 22.1676 116.09 22.6932 115.73 23.375C115.37 24.0473 115.19 24.8333 115.19 25.733V39H110.048ZM155.464 39.4261C153.333 39.4261 151.487 38.9574 149.924 38.0199C148.362 37.0824 147.149 35.7708 146.288 34.0852C145.435 32.3996 145.009 30.4299 145.009 28.1761C145.009 25.9223 145.435 23.9479 146.288 22.2528C147.149 20.5578 148.362 19.2415 149.924 18.304C151.487 17.3665 153.333 16.8977 155.464 16.8977C157.594 16.8977 159.441 17.3665 161.004 18.304C162.566 19.2415 163.773 20.5578 164.626 22.2528C165.487 23.9479 165.918 25.9223 165.918 28.1761C165.918 30.4299 165.487 32.3996 164.626 34.0852C163.773 35.7708 162.566 37.0824 161.004 38.0199C159.441 38.9574 157.594 39.4261 155.464 39.4261ZM155.492 35.3068C156.647 35.3068 157.613 34.9896 158.39 34.3551C159.166 33.7112 159.744 32.8494 160.123 31.7699C160.511 30.6903 160.705 29.4877 160.705 28.1619C160.705 26.8267 160.511 25.6193 160.123 24.5398C159.744 23.4508 159.166 22.5843 158.39 21.9403C157.613 21.2964 156.647 20.9744 155.492 20.9744C154.308 20.9744 153.324 21.2964 152.538 21.9403C151.761 22.5843 151.179 23.4508 150.79 24.5398C150.412 25.6193 150.222 26.8267 150.222 28.1619C150.222 29.4877 150.412 30.6903 150.79 31.7699C151.179 32.8494 151.761 33.7112 152.538 34.3551C153.324 34.9896 154.308 35.3068 155.492 35.3068ZM172.737 47.1818C172.036 47.1818 171.387 47.125 170.79 47.0114C170.203 46.9072 169.735 46.7841 169.384 46.642L170.577 42.6364C171.326 42.8542 171.993 42.9583 172.58 42.9489C173.167 42.9394 173.683 42.7547 174.129 42.3949C174.583 42.0445 174.967 41.4574 175.279 40.6335L175.719 39.4545L167.808 17.1818H173.262L178.29 33.6591H178.518L183.56 17.1818H189.029L180.293 41.642C179.886 42.7973 179.346 43.7869 178.674 44.6108C178.002 45.4441 177.178 46.0786 176.202 46.5142C175.237 46.9593 174.081 47.1818 172.737 47.1818Z" fill="white"/>
<path d="M55.9091 66H49.0909V42.7273H56.3182C58.5379 42.7273 60.4356 43.1894 62.0114 44.1136C63.5947 45.0379 64.8068 46.3636 65.6477 48.0909C66.4886 49.8182 66.9091 51.8902 66.9091 54.3068C66.9091 56.7462 66.4773 58.8409 65.6136 60.5909C64.7576 62.3333 63.5076 63.6705 61.8636 64.6023C60.2273 65.5341 58.2424 66 55.9091 66ZM51.2159 64.0909H55.7841C57.7841 64.0909 59.4583 63.697 60.8068 62.9091C62.1553 62.1212 63.1667 60.9962 63.8409 59.5341C64.5152 58.072 64.8523 56.3295 64.8523 54.3068C64.8447 52.2992 64.5114 50.572 63.8523 49.125C63.2008 47.678 62.2311 46.5682 60.9432 45.7955C59.6629 45.0227 58.0795 44.6364 56.1932 44.6364H51.2159V64.0909ZM78.696 66.3636C77.0672 66.3636 75.6581 65.9848 74.4688 65.2273C73.2794 64.4621 72.3589 63.4053 71.7074 62.0568C71.0634 60.7008 70.7415 59.1402 70.7415 57.375C70.7415 55.6174 71.0634 54.0568 71.7074 52.6932C72.3589 51.322 73.2566 50.25 74.4006 49.4773C75.5521 48.697 76.8816 48.3068 78.3892 48.3068C79.3362 48.3068 80.2491 48.4811 81.1278 48.8295C82.0066 49.1705 82.7945 49.697 83.4915 50.4091C84.196 51.1136 84.7528 52.0038 85.1619 53.0795C85.571 54.1477 85.7756 55.4129 85.7756 56.875V57.875H72.1392V56.0909H83.7074C83.7074 54.9697 83.4801 53.9621 83.0256 53.0682C82.5786 52.1667 81.9536 51.4545 81.1506 50.9318C80.3551 50.4091 79.4347 50.1477 78.3892 50.1477C77.2831 50.1477 76.3097 50.4432 75.4688 51.0341C74.6278 51.625 73.9688 52.4053 73.4915 53.375C73.0218 54.3447 72.7831 55.4053 72.7756 56.5568V57.625C72.7756 59.0114 73.0142 60.2235 73.4915 61.2614C73.9763 62.2917 74.6619 63.0909 75.5483 63.6591C76.4347 64.2273 77.4839 64.5114 78.696 64.5114C79.5218 64.5114 80.2453 64.3826 80.8665 64.125C81.4953 63.8674 82.0218 63.5227 82.446 63.0909C82.8778 62.6515 83.2036 62.1705 83.4233 61.6477L85.3438 62.2727C85.0786 63.0076 84.643 63.6856 84.0369 64.3068C83.4384 64.928 82.6884 65.428 81.7869 65.8068C80.893 66.178 79.8627 66.3636 78.696 66.3636ZM92.2557 55.0909V66H90.233V48.5455H92.1989V51.2841H92.3807C92.7898 50.3902 93.4261 49.6742 94.2898 49.1364C95.161 48.5909 96.2367 48.3182 97.517 48.3182C98.6913 48.3182 99.7216 48.5644 100.608 49.0568C101.502 49.5417 102.195 50.2576 102.688 51.2045C103.188 52.1515 103.438 53.3144 103.438 54.6932V66H101.415V54.8182C101.415 53.3864 101.013 52.2538 100.21 51.4205C99.4148 50.5871 98.3466 50.1705 97.0057 50.1705C96.089 50.1705 95.2746 50.3674 94.5625 50.7614C93.8504 51.1553 93.286 51.7235 92.8693 52.4659C92.4602 53.2008 92.2557 54.0758 92.2557 55.0909ZM115.639 48.5455V50.3068H107.31V48.5455H115.639ZM109.912 44.3636H111.946V61.4432C111.946 62.1705 112.071 62.7424 112.321 63.1591C112.571 63.5682 112.897 63.8598 113.298 64.0341C113.7 64.2008 114.128 64.2841 114.582 64.2841C114.848 64.2841 115.075 64.2689 115.264 64.2386C115.454 64.2008 115.62 64.1629 115.764 64.125L116.196 65.9545C115.999 66.0303 115.757 66.0985 115.469 66.1591C115.181 66.2273 114.825 66.2614 114.401 66.2614C113.658 66.2614 112.942 66.0985 112.253 65.7727C111.571 65.447 111.01 64.9621 110.571 64.3182C110.132 63.6742 109.912 62.875 109.912 61.9205V44.3636ZM125.108 66.3977C124.055 66.3977 123.093 66.1932 122.222 65.7841C121.35 65.3674 120.657 64.7689 120.142 63.9886C119.627 63.2008 119.369 62.2462 119.369 61.125C119.369 60.2614 119.532 59.5341 119.858 58.9432C120.184 58.3523 120.646 57.8674 121.244 57.4886C121.843 57.1098 122.551 56.8106 123.369 56.5909C124.188 56.3712 125.089 56.2008 126.074 56.0795C127.051 55.9583 127.877 55.8523 128.551 55.7614C129.233 55.6705 129.752 55.5265 130.108 55.3295C130.464 55.1326 130.642 54.8144 130.642 54.375V53.9659C130.642 52.7765 130.286 51.8409 129.574 51.1591C128.869 50.4697 127.854 50.125 126.528 50.125C125.271 50.125 124.244 50.4015 123.449 50.9545C122.661 51.5076 122.108 52.1591 121.79 52.9091L119.869 52.2159C120.263 51.2614 120.809 50.5 121.506 49.9318C122.203 49.3561 122.983 48.9432 123.847 48.6932C124.71 48.4356 125.585 48.3068 126.472 48.3068C127.138 48.3068 127.831 48.3939 128.551 48.5682C129.278 48.7424 129.953 49.0455 130.574 49.4773C131.195 49.9015 131.699 50.4962 132.085 51.2614C132.472 52.0189 132.665 52.9811 132.665 54.1477V66H130.642V63.2386H130.517C130.275 63.7538 129.915 64.2538 129.438 64.7386C128.96 65.2235 128.362 65.6212 127.642 65.9318C126.922 66.2424 126.078 66.3977 125.108 66.3977ZM125.381 64.5455C126.456 64.5455 127.388 64.3068 128.176 63.8295C128.964 63.3523 129.57 62.7197 129.994 61.9318C130.426 61.1364 130.642 60.2614 130.642 59.3068V56.7841C130.491 56.928 130.237 57.0568 129.881 57.1705C129.532 57.2841 129.127 57.3864 128.665 57.4773C128.21 57.5606 127.756 57.6326 127.301 57.6932C126.847 57.7538 126.438 57.8068 126.074 57.8523C125.089 57.9735 124.248 58.1629 123.551 58.4205C122.854 58.678 122.32 59.0341 121.949 59.4886C121.578 59.9356 121.392 60.5114 121.392 61.2159C121.392 62.2765 121.771 63.0985 122.528 63.6818C123.286 64.2576 124.237 64.5455 125.381 64.5455ZM140.068 42.7273V66H138.045V42.7273H140.068Z" fill="white"/>
</svg>
