<svg width="26" height="26" viewBox="0 0 26 26" fill="none" xmlns="http://www.w3.org/2000/svg">
<path d="M23.6226 10.8783H22.75V10.8333H13V15.1666H19.1224C18.2292 17.6892 15.8291 19.5 13 19.5C9.41033 19.5 6.49996 16.5896 6.49996 13C6.49996 9.41033 9.41033 6.49996 13 6.49996C14.6569 6.49996 16.1644 7.12504 17.3122 8.14608L20.3764 5.08188C18.4415 3.27867 15.8535 2.16663 13 2.16663C7.01725 2.16663 2.16663 7.01725 2.16663 13C2.16663 18.9827 7.01725 23.8333 13 23.8333C18.9827 23.8333 23.8333 18.9827 23.8333 13C23.8333 12.2736 23.7585 11.5645 23.6226 10.8783Z" fill="#FFC107"/>
<path d="M3.41577 7.95758L6.97506 10.5679C7.93815 8.18346 10.2706 6.49996 13 6.49996C14.657 6.49996 16.1644 7.12504 17.3122 8.14608L20.3764 5.08188C18.4416 3.27867 15.8535 2.16663 13 2.16663C8.83894 2.16663 5.23035 4.51583 3.41577 7.95758Z" fill="#FF3D00"/>
<path d="M13 23.8333C15.7982 23.8333 18.3408 22.7625 20.2632 21.021L16.9103 18.1838C15.8226 19.0076 14.4706 19.5 13 19.5C10.1822 19.5 7.78967 17.7033 6.88834 15.1959L3.35559 17.9178C5.14851 21.4262 8.78959 23.8333 13 23.8333Z" fill="#4CAF50"/>
<path d="M23.6226 10.8783H22.75V10.8334H13V15.1667H19.1225C18.6935 16.3784 17.914 17.4233 16.9087 18.1843L16.9103 18.1832L20.2632 21.0205C20.026 21.2361 23.8333 18.4167 23.8333 13C23.8333 12.2737 23.7586 11.5646 23.6226 10.8783Z" fill="#1976D2"/>
</svg>
