<svg width="74" height="56" viewBox="0 0 74 56" fill="none" xmlns="http://www.w3.org/2000/svg">
<path d="M36.8399 18.0802C39.7797 18.0802 42.8134 17.4565 45.857 16.2265C46.6174 15.9186 47.1838 15.2737 47.372 14.498C47.5797 13.6453 47.9286 12.8292 48.299 11.9649C48.5596 11.3586 48.8281 10.7311 49.0731 10.0381C49.5964 8.55791 49.808 7.13929 49.7002 5.82461C49.5964 4.54458 49.1985 3.41854 48.5204 2.48114C47.3602 0.87966 45.4886 0 43.2505 0C41.2044 0 39.9972 0.741068 38.7194 1.52641C38.7018 1.53796 38.6841 1.54758 38.6685 1.55913C36.448 1.69772 35.3701 1.25501 34.2275 0.789191C33.2809 0.402295 32.303 0.00192439 30.7508 0.00192439C28.5108 0.00192439 26.6391 0.883509 25.4809 2.48306C24.8008 3.42047 24.4049 4.54651 24.3011 5.82654C24.1952 7.14121 24.4049 8.55983 24.9282 10.04C25.1732 10.733 25.4417 11.3605 25.7023 11.9668C26.0727 12.8311 26.4216 13.6472 26.6293 14.4999C26.8096 15.2391 27.3466 15.8704 28.0659 16.188C30.9037 17.4392 33.8434 18.0763 36.8008 18.0821C36.8145 18.0802 36.8262 18.0802 36.8399 18.0802ZM43.2505 1.15876C45.0966 1.15876 46.6272 1.86711 47.5581 3.15291C48.7282 4.76594 48.8693 7.07769 47.958 9.657C47.7247 10.3153 47.4641 10.9255 47.2113 11.5145C46.8213 12.423 46.4528 13.2834 46.2235 14.2285C46.1236 14.6424 45.8178 14.9869 45.4082 15.1525C39.5915 17.5008 33.9198 17.4931 28.548 15.1274C28.1599 14.9561 27.8719 14.6212 27.7758 14.2285C27.5465 13.2834 27.1781 12.4249 26.7881 11.5145C26.5353 10.9255 26.2746 10.3153 26.0414 9.657C25.1301 7.07577 25.2712 4.76594 26.4412 3.15291C27.3721 1.86711 28.9027 1.15876 30.7489 1.15876C32.0639 1.15876 32.8557 1.48214 33.7709 1.85749C34.543 2.17316 35.3838 2.51771 36.595 2.66593C35.57 3.08939 34.3059 3.40122 32.5186 3.44934C32.1932 3.45704 31.9345 3.7246 31.9443 4.04412C31.9522 4.36365 32.2246 4.61773 32.5499 4.60811C34.1197 4.56576 35.4759 4.32515 36.6988 3.87088C37.6807 3.50516 38.4646 3.04512 39.1545 2.62358C39.1623 2.61973 39.1682 2.61588 39.176 2.6101C39.2329 2.57546 39.2897 2.54081 39.3446 2.50616C40.5734 1.75354 41.5435 1.15876 43.2505 1.15876Z" fill="#083344"/>
<path d="M8.77526 49.0202C9.15546 49.0202 9.53371 48.8912 9.84728 48.641C10.4195 48.1829 10.6351 47.4437 10.396 46.7585C9.94919 45.4804 9.70225 43.9597 9.70225 42.4814C9.70225 40.6836 10.057 39.0032 10.6978 37.7501C11.2662 36.6395 12.007 36.0024 12.7262 36.0024C13.4474 36.0024 14.1863 36.6395 14.7546 37.7501C15.3975 39.0051 15.7502 40.6855 15.7502 42.4814C15.7502 43.9616 15.5033 45.4804 15.0565 46.7585C14.8174 47.4437 15.0329 48.1829 15.6052 48.641C16.1618 49.0875 16.9202 49.1453 17.5356 48.7892C18.4234 48.2753 19.2544 47.5554 20.0089 46.6468C20.7634 45.7383 21.4043 44.6835 21.9099 43.5151C22.4391 42.2947 22.8036 40.9954 22.9917 39.6519C23.1936 38.214 23.1877 36.7531 22.976 35.3113C22.6742 33.2594 23.2994 31.7985 24.0245 30.1085C24.2852 29.5021 24.5537 28.8746 24.7987 28.1817C25.3219 26.7015 25.5336 25.2828 25.4258 23.9682C25.3219 22.6881 24.9241 21.5621 24.246 20.6247C23.0858 19.0232 21.2142 18.1436 18.9761 18.1436C16.93 18.1436 15.7228 18.8846 14.445 19.67C14.4274 19.6815 14.4097 19.6911 14.394 19.7027C12.1736 19.8413 11.0957 19.3986 9.9531 18.9327C9.00652 18.5458 8.02857 18.1455 6.4764 18.1455C4.2383 18.1455 2.36472 19.0271 1.20647 20.6266C0.526419 21.564 0.130534 22.6901 0.0266639 23.9701C-0.0791659 25.2848 0.130534 26.7034 0.653803 28.1836C0.89878 28.8766 1.16727 29.5041 1.42793 30.1104C2.15306 31.8004 2.77824 33.2614 2.47643 35.3133C2.26477 36.755 2.25889 38.214 2.46075 39.6538C2.64889 40.9974 3.01341 42.2986 3.54256 43.517C4.05015 44.6854 4.68905 45.7402 5.44358 46.6487C6.19811 47.5573 7.02907 48.2772 7.91686 48.7911C8.18536 48.9432 8.48129 49.0202 8.77526 49.0202ZM18.9761 19.3004C20.8222 19.3004 22.3528 20.0087 23.2837 21.2945C24.4537 22.9076 24.5949 25.2193 23.6835 27.7986C23.4503 28.4569 23.1897 29.0671 22.9368 29.6561C22.1764 31.4289 21.4592 33.1035 21.808 35.475C22.2901 38.7588 21.5395 41.4112 20.8242 43.0589C19.9109 45.1628 18.494 46.8874 16.9359 47.7883C16.6615 47.948 16.4362 47.8075 16.3519 47.7421C16.2049 47.6246 16.0795 47.4033 16.1735 47.1357C16.6615 45.7383 16.93 44.0868 16.93 42.4814C16.93 40.5065 16.5322 38.6413 15.8071 37.2285C15.0192 35.6886 13.9237 34.8417 12.7223 34.8417C11.521 34.8417 10.4274 35.6886 9.63758 37.2285C8.91441 38.6413 8.51461 40.5065 8.51461 42.4814C8.51461 44.0868 8.7831 45.7383 9.27109 47.1357C9.36517 47.4033 9.23974 47.6247 9.09275 47.744C9.00848 47.8114 8.7831 47.9499 8.50873 47.7902C6.95068 46.8894 5.53373 45.1647 4.62046 43.0608C3.90513 41.4131 3.15453 38.7607 3.63664 35.4769C3.98549 33.1055 3.26819 31.4308 2.50779 29.658C2.25497 29.069 1.99431 28.4589 1.7611 27.8006C0.849784 25.2193 0.990889 22.9095 2.1609 21.2965C3.09181 20.0107 4.62242 19.3023 6.46857 19.3023C7.7836 19.3023 8.57536 19.6257 9.49059 20.001C10.2628 20.3167 11.1035 20.6613 12.3147 20.8095C11.2897 21.2329 10.0256 21.5448 8.23827 21.5929C7.91294 21.6006 7.65425 21.8682 7.66405 22.1877C7.67189 22.5072 7.9443 22.7613 8.26963 22.7517C9.83944 22.7093 11.1956 22.4687 12.4185 22.0144C13.4004 21.6487 14.1824 21.1887 14.8742 20.7671C14.882 20.7633 14.8879 20.7594 14.8958 20.7537C14.9526 20.719 15.0075 20.6844 15.0643 20.6497C16.3009 19.8952 17.271 19.3004 18.9761 19.3004Z" fill="#083344"/>
<path d="M57.3221 49.0203C57.7023 49.0203 58.0806 48.8913 58.3941 48.6411C58.9664 48.183 59.182 47.4438 58.9429 46.7586C58.4961 45.4805 58.2491 43.9598 58.2491 42.4816C58.2491 40.6837 58.6038 39.0033 59.2447 37.7503C59.8131 36.6396 60.5539 36.0025 61.2731 36.0025C61.9943 36.0025 62.7332 36.6396 63.3015 37.7503C63.9443 39.0053 64.2971 40.6857 64.2971 42.4816C64.2971 43.9618 64.0502 45.4805 63.6033 46.7586C63.3642 47.4438 63.5798 48.183 64.1521 48.6411C64.7087 49.0877 65.4671 49.1454 66.0825 48.7893C66.9703 48.2754 67.8012 47.5555 68.5558 46.6469C69.3103 45.7384 69.9512 44.6836 70.4568 43.5152C70.9859 42.2948 71.3505 40.9956 71.5386 39.652C71.7405 38.2141 71.7346 36.7532 71.5229 35.3115C71.2211 33.2596 71.8463 31.7986 72.5714 30.1086C72.8321 29.5023 73.1006 28.8747 73.3455 28.1818C73.8688 26.7016 74.0805 25.283 73.9727 23.9683C73.8688 22.6883 73.471 21.5622 72.7929 20.6248C71.6327 19.0233 69.7611 18.1437 67.5229 18.1437C65.4769 18.1437 64.2697 18.8847 62.9919 19.6701C62.9742 19.6816 62.9566 19.6913 62.9409 19.7028C60.7204 19.8414 59.6425 19.3987 58.5 18.9329C57.5534 18.546 56.5754 18.1456 55.0233 18.1456C52.7832 18.1456 50.9116 19.0272 49.7533 20.6267C49.0733 21.5641 48.6774 22.6902 48.5735 23.9702C48.4677 25.2849 48.6774 26.7035 49.2007 28.1837C49.4457 28.8767 49.7141 29.5042 49.9748 30.1105C50.6999 31.8005 51.3251 33.2615 51.0233 35.3134C50.8116 36.7551 50.8058 38.2142 51.0076 39.6539C51.1958 40.9975 51.5603 42.2987 52.0894 43.5171C52.597 44.6855 53.2359 45.7403 53.9905 46.6489C54.745 47.5574 55.5759 48.2773 56.4637 48.7912C56.7322 48.9433 57.0282 49.0203 57.3221 49.0203ZM61.2731 34.8399C60.0717 34.8399 58.9782 35.6868 58.1884 37.2267C57.4652 38.6395 57.0654 40.5047 57.0654 42.4796C57.0654 44.085 57.3339 45.7365 57.8219 47.1339C57.916 47.4015 57.7905 47.6228 57.6435 47.7422C57.5593 47.8096 57.3339 47.9481 57.0595 47.7884C55.5015 46.8876 54.0845 45.1629 53.1713 43.059C52.4559 41.4113 51.7053 38.7589 52.1874 35.4751C52.5363 33.1037 51.819 31.429 51.0586 29.6562C50.8058 29.0672 50.5451 28.4571 50.3119 27.7988C49.4006 25.2175 49.5417 22.9077 50.7117 21.2947C51.6426 20.0089 53.1732 19.3005 55.0194 19.3005C56.3344 19.3005 57.1262 19.6239 58.0414 19.9992C58.8135 20.3149 59.6543 20.6595 60.8655 20.8077C59.8405 21.2311 58.5764 21.543 56.7891 21.5911C56.4637 21.5988 56.205 21.8663 56.2148 22.1859C56.2227 22.5054 56.4951 22.7595 56.8204 22.7499C58.3902 22.7075 59.7464 22.4669 60.9693 22.0126C61.9512 21.6469 62.7351 21.1869 63.425 20.7653C63.4328 20.7615 63.4387 20.7576 63.4465 20.7519C63.5034 20.7172 63.5602 20.6826 63.6151 20.6479C64.8439 19.8934 65.814 19.2986 67.519 19.2986C69.3652 19.2986 70.8958 20.0069 71.8267 21.2927C72.9967 22.9058 73.1378 25.2175 72.2265 27.7968C71.9933 28.4551 71.7326 29.0653 71.4798 29.6543C70.7194 31.4271 70.0021 33.1017 70.351 35.4732C70.8331 38.757 70.0825 41.4094 69.3671 43.0571C68.4539 45.161 67.0369 46.8856 65.4789 47.7865C65.2025 47.9462 64.9791 47.8057 64.8948 47.7403C64.7479 47.6228 64.6224 47.4015 64.7165 47.132C65.2045 45.7346 65.473 44.083 65.473 42.4777C65.473 40.5028 65.0751 38.6376 64.35 37.2248C63.57 35.6868 62.4745 34.8399 61.2731 34.8399Z" fill="#083344"/>
<path d="M29.7219 33.9988C29.9688 33.9988 30.1981 33.8468 30.2804 33.6042C30.3843 33.3001 30.2197 32.971 29.91 32.8689C28.7851 32.4936 27.7934 32.0932 26.9527 31.7468C26.3471 31.4985 25.5632 31.3599 24.7459 31.3599C23.9267 31.3599 23.1428 31.4965 22.5392 31.7468C22.4765 31.7737 22.4098 31.7987 22.3432 31.8257C22.0394 31.9431 21.8905 32.2799 22.01 32.5783C22.1296 32.8766 22.4725 33.0229 22.7763 32.9055C22.8508 32.8766 22.9253 32.8478 22.9958 32.817C23.962 32.4205 25.5318 32.4205 26.496 32.817C27.3544 33.1712 28.3677 33.5811 29.5298 33.968C29.5945 33.9892 29.6592 33.9988 29.7219 33.9988Z" fill="#083344"/>
<path d="M44.2802 33.989C44.3429 33.989 44.4075 33.9794 44.4703 33.9582C45.6207 33.5732 46.6241 33.1671 47.4747 32.8187C48.4408 32.4222 50.0106 32.4222 50.9768 32.8187C51.0591 32.8533 51.1454 32.8861 51.2316 32.9188C51.5354 33.0343 51.8783 32.888 51.9959 32.5896C52.1135 32.2913 51.9646 31.9544 51.6608 31.8389C51.5844 31.8101 51.5079 31.7793 51.4335 31.7485C50.8279 31.5002 50.0459 31.3616 49.2267 31.3616C48.4075 31.3616 47.6236 31.4982 47.02 31.7485C46.1871 32.0911 45.2072 32.4876 44.092 32.861C43.7824 32.965 43.6177 33.2941 43.7236 33.5963C43.8059 33.8369 44.0352 33.989 44.2802 33.989Z" fill="#083344"/>
<path d="M30.5096 36.2005H43.4933C44.2538 36.2005 44.8711 35.5942 44.8711 34.8474V32.1487C44.8711 31.4019 44.2538 30.7955 43.4933 30.7955H30.5096C29.7492 30.7955 29.1319 31.4019 29.1319 32.1487V34.8474C29.1319 35.5942 29.7492 36.2005 30.5096 36.2005ZM43.4914 31.9562C43.5992 31.9562 43.6874 32.0428 43.6874 32.1487V34.8474C43.6874 34.9532 43.5992 35.0398 43.4914 35.0398H30.5076C30.3999 35.0398 30.3117 34.9532 30.3117 34.8474V32.1487C30.3117 32.0428 30.3999 31.9562 30.5076 31.9562H43.4914Z" fill="#083344"/>
<path d="M30.9785 31.9564H43.0235C43.2019 31.9564 43.3704 31.8775 43.4821 31.7408C43.5938 31.6041 43.6369 31.4251 43.5997 31.2538L41.7653 22.9057C41.6301 22.2878 41.0637 21.8374 40.4189 21.8374H33.5812C32.9364 21.8374 32.37 22.2859 32.2348 22.9057L30.4004 31.2538C30.3631 31.4251 30.4063 31.6041 30.518 31.7408C30.6316 31.8775 30.8002 31.9564 30.9785 31.9564ZM42.2925 30.7976H31.7095L33.3891 23.1521C33.4087 23.0635 33.489 23 33.5812 23H40.4189C40.511 23 40.5914 23.0635 40.611 23.1521L42.2925 30.7976Z" fill="#083344"/>
<path d="M35.0217 55.4993H38.9805C39.6606 55.4993 40.2466 55.0007 40.3445 54.3405L43.0902 35.706C43.1157 35.5385 43.0648 35.371 42.953 35.244C42.8413 35.117 42.6787 35.0438 42.5062 35.0438H31.4999C31.3294 35.0438 31.1648 35.117 31.0531 35.244C30.9414 35.371 30.8904 35.5404 30.9159 35.706L33.6616 54.3405C33.7557 55.0007 34.3416 55.4993 35.0217 55.4993ZM41.8222 36.2007L39.1745 54.173C39.1608 54.2674 39.0765 54.3386 38.9805 54.3386H35.0217C34.9237 54.3386 34.8414 54.2674 34.8277 54.173L32.18 36.2007H41.8222Z" fill="#083344"/>
<path d="M42.0928 38.9995C42.3358 38.9995 42.5631 38.8512 42.6493 38.6145C42.7591 38.3123 42.6003 37.9812 42.2927 37.8734L34.3476 35.0766C34.0399 34.9688 33.7028 35.1247 33.5931 35.4269C33.4833 35.7291 33.6421 36.0602 33.9497 36.168L41.8948 38.9648C41.9595 38.9879 42.0261 38.9995 42.0928 38.9995Z" fill="#083344"/>
<path d="M37.228 40.5164C37.471 40.5164 37.6984 40.3682 37.7846 40.1314C37.8943 39.8292 37.7356 39.4982 37.4279 39.3904L32.0541 37.4982C31.7464 37.3904 31.4093 37.5464 31.2996 37.8486C31.1898 38.1508 31.3486 38.4818 31.6563 38.5896L37.0301 40.4818C37.0947 40.5049 37.1614 40.5164 37.228 40.5164Z" fill="#083344"/>
<path d="M41.6391 42.0695C41.8822 42.0695 42.1095 41.9213 42.1957 41.6845C42.3055 41.3823 42.1467 41.0513 41.839 40.9435L39.7224 40.1986C39.4148 40.0908 39.0777 40.2467 38.9679 40.5489C38.8582 40.8511 39.0169 41.1822 39.3246 41.2899L41.4412 42.0349C41.5059 42.058 41.5725 42.0695 41.6391 42.0695Z" fill="#083344"/>
<path d="M41.187 45.1417C41.43 45.1417 41.6573 44.9935 41.7436 44.7568C41.8533 44.4546 41.6946 44.1235 41.3869 44.0157L32.556 40.907C32.2483 40.7993 31.9112 40.9552 31.8015 41.2574C31.6917 41.5596 31.8505 41.8906 32.1581 41.9984L40.9891 45.1071C41.0537 45.1302 41.1223 45.1417 41.187 45.1417Z" fill="#083344"/>
<path d="M40.7334 48.2115C40.9764 48.2115 41.2037 48.0633 41.29 47.8265C41.3997 47.5243 41.241 47.1932 40.9333 47.0855L35.5869 45.2029C35.2792 45.0952 34.9421 45.2511 34.8324 45.5533C34.7226 45.8555 34.8814 46.1865 35.1891 46.2943L40.5354 48.1768C40.6001 48.1999 40.6687 48.2115 40.7334 48.2115Z" fill="#083344"/>
<path d="M40.2837 51.2821C40.5267 51.2821 40.754 51.1339 40.8403 50.8971C40.95 50.5949 40.7913 50.2638 40.4836 50.1561L33.5615 47.7192C33.2538 47.6114 32.9167 47.7673 32.807 48.0695C32.6972 48.3717 32.856 48.7028 33.1637 48.8106L40.0857 51.2474C40.1504 51.2725 40.217 51.2821 40.2837 51.2821Z" fill="#083344"/>
<path d="M39.8315 54.3541C40.0745 54.3541 40.3019 54.2059 40.3881 53.9692C40.4979 53.667 40.3391 53.3359 40.0314 53.2281L34.0618 51.1262C33.7541 51.0184 33.4171 51.1743 33.3073 51.4765C33.1976 51.7787 33.3563 52.1098 33.664 52.2176L39.6336 54.3195C39.6983 54.3426 39.7649 54.3541 39.8315 54.3541Z" fill="#083344"/>
</svg>
