<svg width="73" height="56" viewBox="0 0 73 56" fill="none" xmlns="http://www.w3.org/2000/svg">
<path d="M28.6455 17.5117C28.9243 17.7024 29.2151 17.8017 29.4458 17.8017C29.6172 17.8017 29.7558 17.7472 29.8311 17.6351C29.9216 17.5037 29.9104 17.3195 29.7998 17.1144C29.6949 16.9205 29.5139 16.7283 29.2864 16.5729C28.8017 16.2404 28.2794 16.1868 28.1 16.4495C28.0103 16.5809 28.0215 16.7659 28.132 16.9702C28.2362 17.1641 28.4188 17.3563 28.6455 17.5117ZM28.1889 16.5104C28.2434 16.4303 28.3491 16.3918 28.4821 16.3918C28.6912 16.3918 28.9675 16.4864 29.2255 16.6618C29.4378 16.8068 29.6084 16.9854 29.7045 17.1641C29.7942 17.3315 29.8079 17.4773 29.7422 17.5726C29.602 17.7777 29.127 17.7096 28.7064 17.4212C28.4933 17.2754 28.3235 17.0976 28.2274 16.9189C28.1368 16.7507 28.124 16.6057 28.1889 16.5104Z" fill="#083344"/>
<path d="M27.3368 16.983C27.4257 16.8517 27.4153 16.6666 27.3047 16.4623C27.2006 16.2685 27.0187 16.077 26.7912 15.9216C26.3066 15.5892 25.7843 15.5355 25.6049 15.7983C25.5152 15.9296 25.5264 16.1147 25.6369 16.3198C25.7419 16.5128 25.9229 16.7051 26.1496 16.8597C26.4284 17.0503 26.7191 17.1497 26.9507 17.1497C27.1213 17.1505 27.2599 17.096 27.3368 16.983ZM26.2113 16.7708C25.9982 16.6258 25.8284 16.4463 25.7322 16.2677C25.6425 16.1003 25.6281 15.9553 25.6938 15.8592C25.7491 15.779 25.854 15.7414 25.987 15.7414C26.1961 15.7414 26.4724 15.8351 26.7304 16.0114C26.9434 16.1571 27.1133 16.3358 27.2094 16.5136C27.2991 16.681 27.3127 16.826 27.2478 16.9222C27.1069 17.128 26.6318 17.0583 26.2113 16.7708Z" fill="#083344"/>
<path d="M28.0946 18.0917C27.6092 17.7592 27.0869 17.7056 26.9083 17.9683C26.8178 18.0997 26.829 18.2839 26.9395 18.489C27.0445 18.6829 27.2255 18.8743 27.453 19.0297C27.7326 19.2204 28.0225 19.3197 28.2533 19.3197C28.4247 19.3197 28.5633 19.2652 28.6394 19.1531C28.7291 19.0217 28.7187 18.8367 28.6073 18.6324C28.5032 18.4385 28.3205 18.2463 28.0946 18.0917ZM28.5504 19.0922C28.4095 19.2981 27.9344 19.2284 27.5139 18.9408C27.3016 18.795 27.131 18.6172 27.0348 18.4385C26.9451 18.2703 26.9315 18.1253 26.9972 18.03C27.0517 17.9491 27.1566 17.9114 27.2904 17.9114C27.4987 17.9114 27.7758 18.006 28.033 18.1822C28.246 18.3272 28.4159 18.5058 28.512 18.6845C28.6017 18.8519 28.6161 18.9969 28.5504 19.0922Z" fill="#083344"/>
<path d="M30.5891 18.743C30.1036 18.4106 29.5813 18.3561 29.4019 18.6197C29.313 18.751 29.3234 18.9353 29.434 19.1403C29.5389 19.3342 29.7199 19.5265 29.9474 19.6811C30.2262 19.8725 30.517 19.971 30.7477 19.971C30.9191 19.971 31.0577 19.9166 31.1346 19.8044C31.2235 19.6738 31.2123 19.488 31.1018 19.2837C30.9968 19.0899 30.815 18.8976 30.5891 18.743ZM31.0441 19.7427C30.9031 19.9486 30.4281 19.8789 30.0075 19.5913C29.7952 19.4463 29.6246 19.2677 29.5293 19.0891C29.4388 18.9217 29.4251 18.7759 29.4908 18.6805C29.5453 18.5996 29.651 18.562 29.784 18.562C29.9931 18.562 30.2695 18.6565 30.5266 18.8327C30.7397 18.9777 30.9095 19.1564 31.0064 19.335C31.0953 19.5024 31.1098 19.6474 31.0441 19.7427Z" fill="#083344"/>
<path d="M32.7139 47.9038C32.7139 48.5623 33.2498 49.0974 33.9074 49.0974C34.5659 49.0974 35.101 48.5623 35.101 47.9038C35.101 47.2462 34.5659 46.7111 33.9074 46.7111C33.2498 46.7111 32.7139 47.2462 32.7139 47.9038ZM33.9074 46.82C34.5058 46.82 34.9921 47.3063 34.9921 47.9046C34.9921 48.503 34.5058 48.9893 33.9074 48.9893C33.3099 48.9893 32.8228 48.503 32.8228 47.9046C32.8228 47.3063 33.3099 46.82 33.9074 46.82Z" fill="#083344"/>
<path d="M72.0225 46.4949C71.9247 46.253 71.7389 46.0639 71.4986 45.9622C71.2582 45.8604 70.9931 45.8588 70.7512 45.9558L63.7091 48.8011C63.4679 48.8989 63.2781 49.0847 63.1764 49.325C63.0746 49.5653 63.0722 49.8305 63.17 50.0724C63.2677 50.3151 63.4535 50.5034 63.6938 50.6059C63.8156 50.6572 63.9454 50.6844 64.0751 50.6844C64.1985 50.6844 64.3227 50.6604 64.4412 50.6123L67.2305 49.4852C65.63 51.306 63.7643 52.2008 61.6808 52.1424C54.6435 51.9477 47.1303 41.0981 46.8211 40.6471C47.5773 40.1209 48.3071 39.7796 49.0056 39.6266C50.3538 40.2378 51.6123 40.9668 52.749 41.7943C53.2448 42.2012 53.7191 42.6282 54.158 43.0639C54.9214 43.8218 56.0029 44.2519 57.1372 44.2519C57.1724 44.2519 57.2077 44.2511 57.2421 44.2503C58.3332 44.2255 59.3112 43.8001 59.9954 43.0559C61.5622 41.3489 61.5582 38.7911 59.9881 37.2314C56.0309 33.3046 50.675 30.8414 44.0455 29.8913C43.3021 28.3405 41.7304 27.3448 40.0049 27.3448H36.6757V10.1356L38.4332 10.174C38.4709 10.4648 38.6471 10.7324 38.9011 10.8726C39.0196 10.9383 39.1478 10.9703 39.2776 10.9703C39.4274 10.9703 39.5788 10.927 39.7213 10.8405L54.7893 1.71326L54.8077 1.70845C55.3396 1.56667 55.507 1.07401 55.3973 0.659866C55.2859 0.240111 54.8902 -0.110752 54.3479 0.0326372C53.0854 0.36748 51.8221 0.702322 50.5581 1.03797L46.5183 2.10978C43.3974 2.93728 40.2773 3.76477 37.1563 4.59307L36.1094 4.87023C35.8538 4.66997 35.5398 4.55942 35.2106 4.55942C34.4023 4.55942 33.7454 5.21629 33.7454 6.02456V9.63814L30.856 9.57486L30.5748 9.19996C30.3754 8.93401 30.0702 8.80344 29.7385 8.84349C29.4037 8.88354 29.1105 9.09022 28.9903 9.36899C28.8854 9.61491 28.9255 9.88086 29.1041 10.118L31.9254 13.8806L30.9626 14.8354C30.7863 14.6704 30.5933 14.515 30.3834 14.3716C28.8341 13.3118 26.9877 13.307 26.2659 14.3604C26.1874 14.4749 26.1242 14.5991 26.0777 14.7313C25.5602 14.8002 25.1437 15.0165 24.8913 15.3841C24.5268 15.9176 24.5741 16.6706 25.0235 17.5069C25.4489 18.2976 26.1914 19.081 27.1159 19.7131C28.0387 20.3459 29.0392 20.7536 29.93 20.865C30.0902 20.885 30.2448 20.8946 30.3914 20.8946C31.1067 20.8946 31.6539 20.6615 31.9567 20.2193C32.3051 19.7099 32.2771 18.9993 31.8822 18.2087C31.883 18.2079 31.8838 18.2063 31.8846 18.2055C32.4469 17.3804 32.1593 16.15 31.267 15.1454L32.1882 14.2306L32.3588 14.4573C32.535 14.692 32.793 14.821 33.0782 14.821C33.1166 14.821 33.1559 14.8194 33.1951 14.8146C33.4058 14.789 33.5996 14.6976 33.7446 14.5639V24.1974H25.2822V24.4145C25.2822 26.0895 26.6448 27.4521 28.3199 27.4521H28.7741C27.055 27.8342 25.7012 29.1952 25.3615 30.9808C25.0443 31.0537 24.7191 31.133 24.3931 31.2195C24.345 31.2155 24.2985 31.2115 24.2513 31.2067C23.1562 31.0152 22.0588 30.6988 20.9053 30.247C18.937 29.3602 16.9536 28.1554 14.8468 26.5685C12.2322 24.5042 9.77373 22.1555 7.53877 19.5889C7.37376 19.3982 7.21194 19.2116 7.05493 19.0201C6.40447 18.2255 5.0603 17.7961 4.12546 17.7961C3.04403 17.7961 1.87048 18.284 1.204 19.0105C0.385313 19.9029 -0.0416519 20.9395 0.00320746 21.9296C0.05047 22.9902 0.406941 23.8545 1.19518 24.819C3.71692 27.9031 6.85307 30.8294 10.7807 33.7652C13.888 36.0875 17.0249 37.7449 20.105 38.6902C20.8748 38.9265 21.651 39.1059 22.4112 39.2213C22.5218 39.2381 22.6331 39.2557 22.7453 39.2733C22.9047 39.2982 23.0649 39.3238 23.2267 39.3478C23.56 39.9302 23.7859 40.664 23.8956 41.5355C24.3178 44.8719 22.9648 49.2762 22.6876 50.1293H19.4249C16.7325 50.1293 14.5416 52.3194 14.5416 55.0118V55.2288H53.059V55.0118C53.059 52.3202 50.8689 50.1293 48.1765 50.1293H39.5731C40.1235 49.0543 42.0684 45.4175 44.5309 42.7123C45.1926 41.9849 45.8406 41.3833 46.4695 40.9027C46.6681 41.1919 48.5594 43.9187 51.243 46.6327C55.056 50.4898 58.5639 52.4908 61.6688 52.5765C61.7377 52.5781 61.8049 52.5797 61.873 52.5797C64.2394 52.5797 66.3237 51.4254 68.0692 49.1456L71.4825 47.7662C71.7245 47.6692 71.9135 47.4826 72.016 47.2431C72.1178 47.0028 72.1202 46.7376 72.0225 46.4949ZM31.5978 19.9734C31.3286 20.3659 30.7559 20.5293 29.9829 20.434C29.1594 20.3323 28.2277 19.9494 27.3602 19.355C26.4926 18.7614 25.7981 18.0324 25.4056 17.3011C25.0363 16.6154 24.981 16.0218 25.2502 15.6293C25.4745 15.3008 25.9063 15.1438 26.4518 15.1438C27.3057 15.1438 28.4376 15.5291 29.4878 16.2477C30.3554 16.8421 31.0499 17.571 31.4424 18.3016C31.8117 18.9873 31.867 19.5809 31.5978 19.9734ZM31.6306 17.7705C31.1909 17.092 30.5284 16.4351 29.7321 15.8888C28.6323 15.1358 27.4876 14.7337 26.5615 14.708C26.58 14.672 26.6016 14.6376 26.624 14.6047C27.2096 13.7484 28.7861 13.8037 30.1383 14.7289C31.3943 15.5892 32.0208 16.903 31.6306 17.7705ZM38.4877 9.74068L36.6741 9.70142V6.51641C37.4343 6.31455 38.1961 6.11268 38.9579 5.91081L41.7889 5.15942C44.136 4.53779 46.4831 3.91457 48.8302 3.29215L38.837 9.34575C38.6736 9.44348 38.555 9.58127 38.4877 9.74068ZM54.4152 0.480429C54.472 0.480429 54.5289 0.495649 54.5834 0.525289C54.7276 0.604593 54.8325 0.779224 54.8349 0.949048C54.8373 1.05158 54.8029 1.19577 54.6299 1.29991L39.4946 10.4688C39.3601 10.5505 39.2303 10.5578 39.1101 10.4921C38.9643 10.412 38.861 10.2381 38.8578 10.0675C38.8562 9.96577 38.8898 9.82158 39.0629 9.71665L54.1989 0.548519C54.2718 0.502858 54.3447 0.480429 54.4152 0.480429ZM37.2661 5.01202C40.387 4.18373 43.5071 3.35703 46.6281 2.52954L50.6686 1.45772C51.3744 1.27027 52.0809 1.08283 52.7866 0.895378L50.1487 2.49349C47.3258 3.24248 44.5013 3.99227 41.6783 4.74046L38.8474 5.49186C38.1232 5.68411 37.3991 5.87556 36.6749 6.06862V6.02536C36.6749 5.74018 36.5924 5.46702 36.441 5.23231L37.2661 5.01202ZM36.2399 6.02376V6.18317C35.8458 6.28731 35.4509 6.39145 35.056 6.49639C34.7371 6.5813 34.5793 6.33537 34.5385 6.17676C34.488 5.98611 34.5305 5.73618 34.8205 5.65928L35.9884 5.35007C36.151 5.53752 36.2399 5.77383 36.2399 6.02376ZM35.2098 4.9936C35.3059 4.9936 35.4012 5.00722 35.4917 5.03285L34.7091 5.24032C34.5865 5.27317 34.484 5.32444 34.3983 5.39012C34.5882 5.149 34.8805 4.9936 35.2098 4.9936ZM34.1788 6.45153C34.3102 6.7319 34.5761 6.94898 34.927 6.94898C35.0039 6.94898 35.084 6.93857 35.1681 6.91614C35.5254 6.82082 35.8835 6.72629 36.2407 6.63176V9.69181L34.1796 9.64695L34.1788 6.45153ZM34.1788 10.0811L36.2399 10.126V27.344H34.1788V26.7392C34.8413 26.1808 35.2634 25.3461 35.2634 24.4145V24.1974H34.1788V10.0811ZM33.5436 14.1177C33.4859 14.2522 33.3217 14.362 33.143 14.3828C33.0413 14.3948 32.849 14.3868 32.7049 14.197L29.4502 9.85763C29.3668 9.74628 29.3468 9.63974 29.3901 9.54041C29.4469 9.40583 29.6112 9.29609 29.7898 9.27446C29.8074 9.27286 29.8291 9.27126 29.8523 9.27126C29.9588 9.27126 30.1102 9.3049 30.228 9.46111L33.4827 13.8012C33.5652 13.911 33.586 14.0183 33.5436 14.1177ZM31.186 10.0154L33.7446 10.0715V13.4264L31.186 10.0154ZM28.3199 27.0187C26.9573 27.0187 25.8358 25.9669 25.7252 24.6316H34.8213C34.7099 25.9669 33.5892 27.0187 32.2266 27.0187H28.3199ZM33.7446 27.0444V27.3448H33.0285C33.2824 27.2743 33.5227 27.1725 33.7446 27.0444ZM29.7634 27.7781H33.7446H36.6741H40.0033C41.4628 27.7781 42.8006 28.568 43.5168 29.8176C42.8655 29.7335 42.2046 29.6622 41.5309 29.6053C36.9833 29.228 31.9439 29.6037 26.5527 30.722C26.3244 30.7701 26.0801 30.8206 25.8278 30.8758C26.2595 29.063 27.8665 27.7781 29.7634 27.7781ZM22.8126 38.8448C22.6988 38.8271 22.5875 38.8095 22.4761 38.7927C21.736 38.6789 20.9814 38.5059 20.2316 38.2752C17.1996 37.3444 14.1067 35.7102 11.0394 33.4176C7.14065 30.5025 4.02933 27.6003 1.53083 24.5443C0.805869 23.6583 0.478236 22.8708 0.43578 21.9104C0.396528 21.0364 0.782638 20.1112 1.52282 19.3045C2.10359 18.6717 3.173 18.2311 4.12466 18.2311C4.97218 18.2311 6.17377 18.6292 6.71769 19.2957C6.8787 19.4928 7.04292 19.6818 7.21114 19.8749C9.46372 22.4623 11.9414 24.8294 14.5809 26.9138C16.7181 28.5223 18.7288 29.7431 20.7362 30.6483C21.9298 31.1169 23.0569 31.4406 24.1848 31.6376L24.2016 31.64C24.2665 31.6456 24.3306 31.6513 24.3947 31.6561L24.4323 31.6593L24.4676 31.6496C25.2286 31.447 25.9928 31.2828 26.6408 31.1482C31.9919 30.0387 36.9889 29.6662 41.4949 30.0395C49.1907 30.678 55.3092 33.2013 59.6805 37.5398C61.0848 38.9345 61.0824 41.2279 59.6733 42.7636C59.0701 43.4204 58.2026 43.7953 57.2301 43.8177C56.1911 43.8426 55.1553 43.4444 54.4616 42.7563C54.0114 42.3093 53.5268 41.872 53.0181 41.4554L53.0077 41.4474C51.8253 40.5863 50.5156 39.8293 49.1017 39.194C47.2096 38.4498 45.1165 37.9003 42.8751 37.5583C41.3403 37.3756 39.7438 37.2843 38.0936 37.2843C36.107 37.2843 34.0426 37.4165 31.9182 37.6808C30.0293 37.9532 28.3094 38.2888 26.6617 38.707C26.5207 38.7422 26.3813 38.7807 26.2427 38.8191C26.1105 38.856 25.9784 38.8928 25.8462 38.9265C24.8817 39.1716 23.8291 39.005 22.8126 38.8448ZM48.1757 50.5627C50.5557 50.5627 52.5046 52.4419 52.6184 54.7939H14.9798C15.0936 52.4411 17.0425 50.5627 19.4233 50.5627H48.1757ZM39.0869 50.1285H23.1434C23.5063 48.9958 24.7391 44.8199 24.3282 41.5051C25.0507 41.3184 27.6422 40.6968 30.9834 40.4685C34.5321 40.2258 39.6573 40.3924 44.1304 42.5088C41.4901 45.4431 39.4578 49.3883 39.0869 50.1285ZM44.2105 42.4191C44.2089 42.4215 44.2065 42.4231 44.2049 42.4247C39.7029 40.2859 34.5417 40.1168 30.9722 40.3612C27.6446 40.5887 25.0563 41.2047 24.3114 41.3969C24.2088 40.6399 24.0214 39.9775 23.7522 39.4183C24.49 39.5048 25.2326 39.5297 25.9535 39.3454C26.0897 39.3102 26.2243 39.2741 26.3597 39.2357C26.495 39.198 26.632 39.1604 26.7698 39.1259C28.4032 38.7102 30.1078 38.3777 31.9775 38.1086C35.8274 37.6296 39.477 37.5887 42.8182 37.986C44.7856 38.2856 46.6393 38.751 48.3335 39.3663C47.0302 39.8197 45.6468 40.8418 44.2105 42.4191ZM71.6163 47.0732C71.5602 47.2062 71.4545 47.3104 71.3199 47.364L64.2786 50.2102C64.144 50.2639 63.9966 50.2623 63.8629 50.2062C63.7299 50.1501 63.6266 50.0444 63.5721 49.9106C63.5184 49.776 63.5192 49.6278 63.5761 49.4941C63.6322 49.3611 63.7379 49.2577 63.8717 49.2041L70.9138 46.3579C70.9795 46.3323 71.0484 46.3178 71.1173 46.3178C71.1894 46.3178 71.2606 46.3331 71.3287 46.3619C71.4625 46.418 71.5659 46.5237 71.6203 46.6583C71.6748 46.7921 71.6732 46.9395 71.6163 47.0732Z" fill="#083344"/>
</svg>
