<svg width="83" height="57" viewBox="0 0 83 57" fill="none" xmlns="http://www.w3.org/2000/svg">
<path d="M41.1644 57C40.791 57 40.4888 56.7 40.4888 56.3293V0.670693C40.4888 0.300047 40.791 0 41.1644 0C41.5378 0 41.84 0.300047 41.84 0.670693V56.3293C41.84 56.7 41.5378 57 41.1644 57Z" fill="#083344"/>
<path d="M46.565 45.5121C45.2337 45.5121 43.6469 45.4393 42.4156 44.2215C41.78 43.5927 41.3155 42.7411 40.9955 41.6181C40.6532 40.4179 40.4888 38.942 40.4888 37.1086C40.4888 32.2924 40.6599 26.0709 41.9845 20.6612C42.7712 17.4555 43.8847 14.9316 45.296 13.1578C47.025 10.9847 49.2253 9.88379 51.8322 9.88379C53.6613 9.88379 55.3837 10.6251 56.9528 12.09C58.3507 13.3939 59.5887 15.2405 60.6354 17.5791C62.5912 21.9452 63.7136 27.6902 63.7136 33.3448C63.7136 34.0508 63.7247 34.77 63.738 35.465C63.7691 37.3049 63.798 39.0435 63.6224 40.5657C63.4135 42.3925 62.9424 43.6214 62.1356 44.4355C61.4266 45.1503 60.471 45.5121 59.2908 45.5121H55.6416C55.2682 45.5121 54.9659 45.2121 54.9659 44.8414C54.9659 44.4708 55.2682 44.1707 55.6416 44.1707H59.2908C60.1065 44.1707 60.7221 43.9501 61.1733 43.4934C62.4979 42.1564 62.4445 38.9155 62.389 35.4848C62.3779 34.7832 62.3645 34.0596 62.3645 33.3426C62.3645 27.8711 61.2844 22.3225 59.4042 18.1218C58.4308 15.9487 57.2951 14.2477 56.0305 13.0652C54.7214 11.8429 53.3102 11.223 51.8345 11.223C49.6298 11.223 47.8385 12.1275 46.3583 13.9896C45.0693 15.6111 44.0381 17.963 43.3002 20.9789C42.0089 26.2518 41.8423 32.3696 41.8423 37.1086C41.8423 38.7941 41.9956 40.1885 42.3001 41.2541C42.5512 42.1366 42.9135 42.8161 43.3735 43.2706C44.2936 44.1795 45.5871 44.1751 46.8384 44.1707C46.9295 44.1707 47.0206 44.1707 47.1095 44.1707H52.2545C52.6279 44.1707 52.9301 44.4708 52.9301 44.8414C52.9301 45.2121 52.6279 45.5121 52.2545 45.5121H47.1073C47.0184 45.5121 46.9295 45.5121 46.8406 45.5121C46.7495 45.5121 46.6583 45.5121 46.565 45.5121Z" fill="#083344"/>
<path d="M67.635 42.0132C66.5105 42.0132 65.1703 41.9492 64.1035 40.8968C63.5324 40.332 63.1145 39.5576 62.8301 38.534C62.5256 37.4419 62.3789 36.0917 62.3789 34.4083C62.3789 32.2727 62.41 29.4399 62.65 26.4747C62.939 22.9139 63.4724 19.887 64.2413 17.4778C64.3547 17.1248 64.7325 16.9284 65.0881 17.0409C65.4437 17.1534 65.6415 17.5285 65.5281 17.8815C63.7302 23.525 63.7302 31.4299 63.7302 34.4061C63.7302 37.2102 64.1769 39.0745 65.0592 39.9459C65.8015 40.6806 66.8061 40.6762 67.8684 40.6718C67.9462 40.6718 68.024 40.6718 68.0995 40.6718H78.4385C79.0741 40.6718 79.5564 40.4975 79.9142 40.1357C80.4076 39.6371 80.7209 38.748 80.8698 37.4132C81.0143 36.1159 80.9898 34.576 80.9654 32.9478C80.9565 32.319 80.9454 31.6682 80.9454 31.024C80.9454 26.1195 80.032 21.1489 78.4362 17.3851C77.6139 15.4436 76.656 13.9235 75.587 12.8712C74.498 11.7945 73.329 11.2496 72.1111 11.2496C70.7532 11.2496 69.5975 11.6842 68.5729 12.5799C68.2929 12.8248 67.8662 12.7984 67.6195 12.5204C67.3728 12.2424 67.3995 11.8188 67.6795 11.5739C68.9419 10.4686 70.4331 9.9082 72.1089 9.9082C73.6957 9.9082 75.187 10.5855 76.5382 11.9181C77.7317 13.0962 78.7874 14.7597 79.6786 16.8644C81.341 20.7871 82.2944 25.9474 82.2944 31.0218C82.2944 31.6549 82.3056 32.2992 82.3144 32.9235C82.3411 34.5958 82.3656 36.1755 82.21 37.5566C82.0233 39.2245 81.5988 40.3409 80.8743 41.0711C80.2587 41.6911 79.4386 42.0065 78.4362 42.0065H68.0973C68.0218 42.0065 67.9484 42.0065 67.8728 42.0065C67.7928 42.0132 67.7151 42.0132 67.635 42.0132Z" fill="#083344"/>
<path d="M35.7638 45.5121C35.6705 45.5121 35.5793 45.5121 35.4904 45.5121C35.4015 45.5121 35.3126 45.5121 35.2237 45.5121H28.483C27.854 45.5121 27.3784 45.1988 27.1451 44.6274C26.985 44.2369 26.9473 43.7714 26.9028 43.2309C26.8028 42.0042 26.6784 40.4775 25.0804 39.2817C23.8447 38.3573 22.7601 38.1654 21.8023 37.9933C20.9244 37.8366 20.0932 37.6888 19.4842 36.9895C18.8753 36.2901 18.6152 35.2002 18.6152 33.3448C18.6152 27.6924 19.7376 21.9452 21.6934 17.5791C22.7401 15.2427 23.9803 13.3961 25.376 12.09C26.9428 10.6251 28.6652 9.88379 30.4965 9.88379C33.1035 9.88379 35.3015 10.9847 37.0328 13.1578C38.4441 14.9316 39.5576 17.4555 40.3443 20.6612C41.6711 26.0709 41.84 32.2924 41.84 37.1086C41.84 38.942 41.6733 40.4179 41.3333 41.6181C41.0133 42.7411 40.5488 43.5927 39.9131 44.2215C38.6797 45.4393 37.0951 45.5121 35.7638 45.5121ZM28.4163 44.1663C28.4297 44.1685 28.4497 44.1707 28.483 44.1707H35.2237C35.3126 44.1707 35.4038 44.1707 35.4949 44.1707C36.7461 44.1751 38.0396 44.1795 38.9597 43.2706C39.422 42.8139 39.782 42.1366 40.0332 41.2541C40.3354 40.1885 40.491 38.7941 40.491 37.1086C40.491 32.3674 40.3243 26.2496 39.0331 20.9789C38.293 17.9608 37.264 15.6089 35.9749 13.9896C34.4948 12.1275 32.7035 11.223 30.4988 11.223C29.0231 11.223 27.6118 11.8429 26.3028 13.0652C25.0359 14.2477 23.9025 15.9487 22.929 18.1218C21.0466 22.3225 19.9687 27.8711 19.9687 33.3426C19.9687 34.7876 20.1443 35.6944 20.5088 36.1114C20.7933 36.4379 21.2533 36.5328 22.0445 36.674C23.0402 36.8505 24.4048 37.0931 25.896 38.2117C27.9785 39.7693 28.143 41.788 28.2519 43.1228C28.2763 43.4294 28.2985 43.6964 28.3385 43.9038C28.3674 44.0692 28.4008 44.142 28.4163 44.1663Z" fill="#083344"/>
<path d="M27.8109 45.1259C27.6975 45.1259 27.5819 45.0973 27.4753 45.0377C27.153 44.8546 27.0397 44.4464 27.2241 44.1243C27.2308 44.1133 27.6797 43.3146 28.0242 41.971C28.342 40.7378 28.6309 38.7742 28.2176 36.4312C27.9175 34.7368 26.9841 33.8742 25.9951 32.963C25.1772 32.2085 24.3327 31.4297 23.8282 30.1898C23.557 29.5235 23.4126 28.7955 23.3881 27.9637C23.3615 27.068 23.4726 26.073 23.7304 24.9213C23.8104 24.5595 24.1727 24.3323 24.5349 24.4117C24.8994 24.4911 25.1283 24.8507 25.0483 25.2103C24.1127 29.3956 25.4106 30.5935 26.9152 31.9813C27.9731 32.9564 29.171 34.0617 29.5488 36.1996C30.0089 38.8007 29.6777 40.9826 29.3199 42.3549C28.9265 43.8574 28.4198 44.7487 28.3976 44.7862C28.2709 45.0046 28.0442 45.1259 27.8109 45.1259Z" fill="#083344"/>
<path d="M28.8831 36.9872C28.5942 36.9872 28.3275 36.8019 28.2386 36.515C27.7274 34.8802 28.1519 32.7556 29.4965 30.2008C30.4633 28.3631 31.5545 26.9864 31.5989 26.929C31.8301 26.6378 32.2546 26.5892 32.5479 26.8187C32.8391 27.0481 32.8902 27.4695 32.6591 27.7585C32.6479 27.7718 31.5923 29.1088 30.6833 30.8384C29.5343 33.0292 29.1342 34.8538 29.5298 36.1157C29.6409 36.4687 29.4409 36.8438 29.0853 36.9541C29.0164 36.9761 28.9475 36.9872 28.8831 36.9872Z" fill="#083344"/>
<path d="M14.6947 42.0133C14.6146 42.0133 14.5369 42.0133 14.4591 42.0133C14.3835 42.0133 14.3079 42.0133 14.2346 42.0133H12.2588C11.8366 42.0133 11.461 41.8809 11.1409 41.6184C10.8853 41.4088 10.6764 41.122 10.5009 40.7447C10.2208 40.1424 10.0675 39.4033 9.90746 38.6201C9.74966 37.8523 9.5852 37.0581 9.30517 36.5087C9.00291 35.9153 8.68288 35.8403 8.38062 35.8469C7.73611 35.8623 7.42496 36.1624 6.8849 36.7338C6.54709 37.0912 6.16482 37.4971 5.61587 37.8369C4.98247 38.2274 4.24905 38.4524 3.37562 38.5208C2.50886 38.5892 1.67988 38.309 1.04203 37.7332C0.384182 37.1397 0.0174743 36.3058 0.0041395 35.3858C-0.00697285 34.5937 0.00636223 33.7863 0.019697 32.9303C0.0285869 32.3059 0.0396984 31.6617 0.0396984 31.0285C0.0396984 25.952 0.993138 20.7916 2.65554 16.8689C3.54675 14.7642 4.60465 13.1007 5.79589 11.9226C7.14715 10.5878 8.63621 9.91272 10.2253 9.91272C12.4789 9.91272 14.3746 10.9143 15.8637 12.8911C17.066 14.4884 18.015 16.7608 18.684 19.6422C19.8108 24.5003 19.9552 30.0842 19.9552 34.4062C19.9552 36.0918 19.8086 37.4398 19.5041 38.5319C19.2196 39.5577 18.8018 40.3299 18.2306 40.8947C17.1594 41.9493 15.8192 42.0133 14.6947 42.0133ZM8.40951 34.5077C8.89401 34.5077 9.32517 34.6423 9.6941 34.9092C10.0186 35.1431 10.2853 35.4696 10.5075 35.9064C10.8676 36.6146 11.0498 37.4971 11.2276 38.3532C11.3721 39.0569 11.5099 39.7232 11.7254 40.1843C11.9544 40.6763 12.1522 40.6763 12.2566 40.6763H14.2324C14.3079 40.6763 14.3857 40.6763 14.4635 40.6763C15.5259 40.6807 16.5282 40.6851 17.2705 39.9505C18.1528 39.079 18.5995 37.2147 18.5995 34.4106C18.5995 30.1592 18.4595 24.6746 17.3638 19.9488C16.7371 17.2484 15.8681 15.1459 14.7791 13.6986C13.5434 12.0572 12.0521 11.2585 10.223 11.2585C9.00514 11.2585 7.83612 11.8035 6.74711 12.8801C5.68032 13.9347 4.72244 15.4525 3.8979 17.394C2.30217 21.1578 1.38874 26.1285 1.38874 31.0329C1.38874 31.6771 1.37763 32.3257 1.36874 32.9545C1.3554 33.7995 1.34207 34.5982 1.35318 35.3703C1.35985 35.9153 1.5732 36.4051 1.95102 36.7448C2.30884 37.0691 2.77778 37.2258 3.26672 37.1883C4.71577 37.0735 5.29139 36.4646 5.89813 35.8204C6.46486 35.2203 7.10715 34.5386 8.34729 34.5099C8.36729 34.5077 8.38729 34.5077 8.40951 34.5077Z" fill="#083344"/>
<path d="M8.36285 35.8469C8.28506 35.8469 8.20728 35.8336 8.13171 35.805C7.78056 35.677 7.60054 35.2931 7.72944 34.9467C8.03614 34.115 7.81834 32.6324 7.11827 30.7726C6.55376 29.2701 5.86924 28.0346 5.86257 28.0236C5.68255 27.6993 5.80034 27.2934 6.12705 27.1124C6.45375 26.9337 6.86268 27.0507 7.04492 27.375C7.07382 27.4279 7.77834 28.6965 8.37841 30.2894C9.2185 32.5199 9.42741 34.243 8.99847 35.4078C8.89624 35.6792 8.63843 35.8469 8.36285 35.8469Z" fill="#083344"/>
<path d="M8.38276 33.3317C8.22497 33.3317 8.06717 33.2765 7.94049 33.1684C7.65824 32.9257 7.62934 32.5022 7.87382 32.2242L10.923 28.7427C11.1675 28.4626 11.5942 28.4339 11.8743 28.6766C12.1565 28.9192 12.1854 29.3428 11.9409 29.6208L8.89171 33.1022C8.75836 33.2545 8.57167 33.3317 8.38276 33.3317Z" fill="#083344"/>
<path d="M53.9459 50.2952C53.648 50.2952 53.3858 50.1011 53.2991 49.8187L53.2769 49.7459C51.7078 44.5987 51.7078 44.5987 48.5408 42.1167L48.4941 42.0814C48.3319 41.9535 48.2363 41.7615 48.2363 41.5564C48.2363 41.3512 48.3319 41.157 48.4941 41.0313L48.5386 40.996C51.7078 38.514 51.7078 38.514 53.2747 33.3669L53.2969 33.2941C53.3836 33.0117 53.6458 32.8175 53.9436 32.8175C54.2414 32.8175 54.5037 33.0117 54.5904 33.2941L54.6126 33.3669C56.1817 38.514 56.1817 38.514 59.3487 40.996L59.3931 41.0313C59.5554 41.1592 59.6509 41.3512 59.6509 41.5564C59.6509 41.7615 59.5554 41.9557 59.3931 42.0814L59.3487 42.1167C56.1794 44.5987 56.1794 44.5987 54.6126 49.7459L54.5904 49.8209C54.5059 50.1011 54.2437 50.2952 53.9459 50.2952ZM50.001 41.5564C51.3233 42.5999 52.059 43.2397 52.6546 44.195C53.1324 44.9606 53.4814 45.8783 53.9459 47.3389C54.4103 45.8783 54.7593 44.9606 55.2371 44.195C55.8327 43.2397 56.5684 42.6021 57.8907 41.5586C56.5684 40.515 55.8327 39.8752 55.2371 38.9199C54.7593 38.1544 54.4103 37.2366 53.9459 35.7761C53.4814 37.2344 53.1324 38.1544 52.6546 38.9199C52.059 39.873 51.3233 40.5106 50.001 41.5564Z" fill="#083344"/>
<path d="M66.3847 22.6136C66.0869 22.6136 65.8246 22.4195 65.738 22.1371L65.718 22.0709C64.3134 17.4577 64.3134 17.4577 61.4775 15.236L61.4375 15.2029C61.2753 15.075 61.1797 14.883 61.1797 14.6778C61.1797 14.4727 61.2753 14.2785 61.4375 14.1528L61.4775 14.1219C64.3134 11.9002 64.3134 11.9002 65.718 7.28699L65.738 7.22081C65.8246 6.93841 66.0869 6.74426 66.3847 6.74426C66.6825 6.74426 66.9448 6.93841 67.0314 7.22081L67.0514 7.28699C68.456 11.9002 68.456 11.9002 71.2919 14.1219L71.3319 14.155C71.4942 14.2829 71.5897 14.4749 71.5897 14.68C71.5897 14.8852 71.4942 15.0794 71.3319 15.2051L71.2919 15.236C68.456 17.4577 68.456 17.4577 67.0514 22.0687L67.0314 22.1349C66.9448 22.4217 66.6803 22.6136 66.3847 22.6136ZM62.9421 14.68C64.0978 15.5934 64.749 16.167 65.2801 17.0186C65.6913 17.6783 65.9958 18.4593 66.3847 19.6617C66.7736 18.4571 67.0781 17.6761 67.4893 17.0164C68.0204 16.1648 68.6716 15.5912 69.8273 14.6778C68.6716 13.7645 68.0204 13.1908 67.4893 12.3392C67.0781 11.6796 66.7736 10.8986 66.3847 9.69619C65.9958 10.9008 65.6913 11.6818 65.2801 12.3392C64.7467 13.1931 64.0978 13.7667 62.9421 14.68Z" fill="#083344"/>
<path d="M74.6723 36.844C74.3744 36.844 74.1122 36.6498 74.0255 36.3674L74.0122 36.3211C73.0121 33.0405 73.0121 33.0405 71.0074 31.4696L70.9785 31.4454C70.8163 31.3174 70.7207 31.1255 70.7207 30.9203C70.7207 30.7151 70.8163 30.521 70.9785 30.3952L71.0074 30.3731C73.0121 28.8023 73.0121 28.8023 74.0122 25.5239L74.0277 25.4753C74.1144 25.1929 74.3767 24.9988 74.6745 24.9988C74.9723 24.9988 75.2345 25.1929 75.3212 25.4753L75.3368 25.5239C76.3369 28.8045 76.3369 28.8045 78.3415 30.3753L78.3704 30.3996C78.5327 30.5276 78.6283 30.7195 78.6283 30.9247C78.6283 31.1299 78.5327 31.324 78.3704 31.4498L78.3415 31.4718C76.3369 33.0427 76.3369 33.0427 75.3368 36.3211L75.3212 36.3697C75.2323 36.652 74.9701 36.844 74.6723 36.844ZM72.4809 30.9225C73.2054 31.5027 73.6633 31.9263 74.0322 32.5176C74.2722 32.9037 74.4633 33.3405 74.6723 33.9384C74.8812 33.3405 75.0723 32.9037 75.3123 32.5176C75.6813 31.9263 76.1391 31.5049 76.8636 30.9247C76.1391 30.3445 75.6813 29.9209 75.3123 29.3296C75.0723 28.9435 74.8812 28.5067 74.6723 27.9088C74.4633 28.5067 74.2722 28.9435 74.0322 29.3296C73.6633 29.9187 73.2054 30.3423 72.4809 30.9225Z" fill="#083344"/>
</svg>
