<svg width="24" height="24" viewBox="0 0 24 24" fill="none" xmlns="http://www.w3.org/2000/svg">
<path fill-rule="evenodd" clip-rule="evenodd" d="M12.0003 0C18.6272 0 24 5.37166 24 11.9972C24 19.9017 16.4894 25.6169 8.89487 23.5878C7.92777 23.3293 7.00736 22.9523 6.15075 22.4734L0.499518 23.98C0.187372 24.0626 -0.0949412 23.7527 0.0329559 23.4417L1.97462 18.5887C-1.15016 13.8484 -0.51482 7.54325 3.51546 3.51381C5.68695 1.34278 8.68687 0 12.0003 0ZM9.57055 10.8856C9.26641 10.4017 10.8028 9.58503 10.4542 8.56538C9.34431 5.31753 9.7501 5.53433 7.28856 5.41806C5.91208 5.35288 5.20823 6.13391 5.47231 7.53303C6.24605 11.6321 8.97139 15.2036 12.6323 17.1639C13.6677 17.7182 15.9568 18.6329 17.1278 18.5774C18.9347 18.492 18.5745 16.5679 18.5198 15.4143C18.4957 14.9095 18.1587 14.4748 17.6806 14.3113L15.4331 13.5429C14.5406 13.238 13.8583 14.3358 13.3202 14.461C12.968 14.543 11.4376 13.1477 11.1434 12.8536L11.1426 12.8544C10.5504 12.262 10.0161 11.594 9.57055 10.8856ZM9.67966 12.4067C9.40094 12.0577 9.14017 11.6906 8.8993 11.3081C8.21534 10.2208 9.85535 9.26853 9.70204 8.82002L8.93355 6.57304C8.87581 6.40374 8.7225 6.27973 8.54488 6.27145C7.09603 6.20351 5.97175 5.90275 6.25185 7.38693C7.22337 12.5307 11.4666 16.7728 16.6112 17.7442C18.1026 18.0259 17.7952 16.8935 17.727 15.4516C17.7187 15.274 17.5946 15.121 17.4253 15.0633L15.1779 14.295C14.7293 14.142 13.7773 15.7814 12.6895 15.0975C11.9257 14.6175 11.2147 14.0494 10.581 13.4159L10.5818 13.4151L9.67966 12.4067ZM19.923 4.07611C15.5477 -0.298272 8.45317 -0.298272 4.07788 4.07611C0.261955 7.89123 -0.288859 13.8824 2.74891 18.3178C2.82073 18.4233 2.84062 18.5616 2.78951 18.689L1.06111 23.0089L6.10517 21.6642C6.20296 21.6385 6.31069 21.6499 6.40516 21.7045C13.7599 25.956 23.205 20.6954 23.205 11.9969C23.2044 8.9037 21.9503 6.10298 19.923 4.07611Z" fill="#083344"/>
</svg>
