<svg width="250" height="15" viewBox="0 0 232 15" fill="none" xmlns="http://www.w3.org/2000/svg">
<path d="M115.617 0C112.574 0 111.33 3.59574 110.223 6.6383C109.532 8.71276 108.426 11.4787 107.457 11.4787C106.489 11.4787 105.383 8.71276 104.691 6.6383C103.585 3.45745 102.34 0 99.2979 0C96.2553 0 95.0106 3.59574 93.9043 6.6383C93.2128 8.71276 92.1064 11.4787 91.1383 11.4787C90.0319 11.4787 89.0638 8.71276 88.3723 6.6383C87.266 3.45745 86.0213 0 82.9787 0C79.9362 0 78.6915 3.59574 77.5851 6.6383C76.8936 8.71276 75.7872 11.4787 74.8191 11.4787C73.8511 11.4787 72.7447 8.71276 72.0532 6.6383C70.9468 3.45745 69.7021 0 66.6596 0C63.617 0 62.3723 3.59574 61.266 6.6383C60.5745 8.71276 59.4681 11.4787 58.5 11.4787C57.3936 11.4787 56.4255 8.71276 55.734 6.6383C54.6277 3.45745 53.383 0 50.3404 0C47.2979 0 46.0532 3.59574 44.9468 6.6383C44.2553 8.71276 43.1489 11.4787 42.1808 11.4787C41.0745 11.4787 40.1064 8.71276 39.4149 6.6383C38.3085 3.45745 37.0638 0 34.0213 0C30.9787 0 29.734 3.59574 28.6277 6.6383C27.9362 8.71276 26.8298 11.4787 25.8617 11.4787C24.8936 11.4787 23.7872 8.71276 23.0957 6.6383C21.9894 3.45745 20.7447 0 17.7021 0C14.6596 0 13.4149 3.59574 12.3085 6.6383C11.617 8.71276 10.5106 11.4787 9.54255 11.4787C8.43617 11.4787 7.46809 8.71276 6.7766 6.6383C5.67021 3.45745 4.42553 0 1.38298 0C0.553191 0 0 0.553191 0 1.38298C0 2.21277 0.553191 2.76596 1.38298 2.76596C2.48936 2.76596 3.45745 5.53191 4.14894 7.60638C5.25532 10.7872 6.5 14.2447 9.54255 14.2447C12.5851 14.2447 13.8298 10.6489 14.9362 7.60638C15.6277 5.53191 16.734 2.76596 17.7021 2.76596C18.6702 2.76596 19.7766 5.53191 20.4681 7.60638C21.5745 10.7872 22.8191 14.2447 25.8617 14.2447C28.9043 14.2447 30.1489 10.6489 31.2553 7.60638C31.9468 5.53191 33.0532 2.76596 34.0213 2.76596C35.1277 2.76596 36.0957 5.53191 36.7872 7.60638C37.8936 10.7872 39.1383 14.2447 42.1808 14.2447C45.2234 14.2447 46.4681 10.6489 47.5745 7.60638C48.266 5.53191 49.3723 2.76596 50.3404 2.76596C51.4468 2.76596 52.4149 5.53191 53.1064 7.60638C54.2128 10.7872 55.4574 14.2447 58.5 14.2447C61.5426 14.2447 62.7872 10.6489 63.8936 7.60638C64.5851 5.53191 65.6915 2.76596 66.6596 2.76596C67.6277 2.76596 68.734 5.53191 69.4255 7.60638C70.5319 10.7872 71.7766 14.2447 74.8191 14.2447C77.8617 14.2447 79.1064 10.6489 80.2128 7.60638C80.9042 5.53191 82.0106 2.76596 82.9787 2.76596C84.0851 2.76596 85.0532 5.53191 85.7447 7.60638C86.8511 10.7872 88.0957 14.2447 91.1383 14.2447C94.1809 14.2447 95.4255 10.6489 96.5319 7.60638C97.2234 5.53191 98.3298 2.76596 99.2979 2.76596C100.404 2.76596 101.372 5.53191 102.064 7.60638C103.17 10.7872 104.415 14.2447 107.457 14.2447C110.5 14.2447 111.745 10.6489 112.851 7.60638C113.543 5.53191 114.649 2.76596 115.617 2.76596C116.447 2.76596 117 2.21277 117 1.38298C117 0.553191 116.309 0 115.617 0Z" fill="#666"/>
<path d="M230.617 0C227.574 0 226.33 3.59574 225.223 6.6383C224.532 8.71276 223.426 11.4787 222.457 11.4787C221.489 11.4787 220.383 8.71276 219.691 6.6383C218.585 3.45745 217.34 0 214.298 0C211.255 0 210.011 3.59574 208.904 6.6383C208.213 8.71276 207.106 11.4787 206.138 11.4787C205.032 11.4787 204.064 8.71276 203.372 6.6383C202.266 3.45745 201.021 0 197.979 0C194.936 0 193.691 3.59574 192.585 6.6383C191.894 8.71276 190.787 11.4787 189.819 11.4787C188.851 11.4787 187.745 8.71276 187.053 6.6383C185.947 3.45745 184.702 0 181.66 0C178.617 0 177.372 3.59574 176.266 6.6383C175.574 8.71276 174.468 11.4787 173.5 11.4787C172.394 11.4787 171.426 8.71276 170.734 6.6383C169.628 3.45745 168.383 0 165.34 0C162.298 0 161.053 3.59574 159.947 6.6383C159.255 8.71276 158.149 11.4787 157.181 11.4787C156.074 11.4787 155.106 8.71276 154.415 6.6383C153.309 3.45745 152.064 0 149.021 0C145.979 0 144.734 3.59574 143.628 6.6383C142.936 8.71276 141.83 11.4787 140.862 11.4787C139.894 11.4787 138.787 8.71276 138.096 6.6383C136.989 3.45745 135.745 0 132.702 0C129.66 0 128.415 3.59574 127.309 6.6383C126.617 8.71276 125.511 11.4787 124.543 11.4787C123.436 11.4787 122.468 8.71276 121.777 6.6383C120.67 3.45745 119.426 0 116.383 0C115.553 0 115 0.553191 115 1.38298C115 2.21277 115.553 2.76596 116.383 2.76596C117.489 2.76596 118.457 5.53191 119.149 7.60638C120.255 10.7872 121.5 14.2447 124.543 14.2447C127.585 14.2447 128.83 10.6489 129.936 7.60638C130.628 5.53191 131.734 2.76596 132.702 2.76596C133.67 2.76596 134.777 5.53191 135.468 7.60638C136.574 10.7872 137.819 14.2447 140.862 14.2447C143.904 14.2447 145.149 10.6489 146.255 7.60638C146.947 5.53191 148.053 2.76596 149.021 2.76596C150.128 2.76596 151.096 5.53191 151.787 7.60638C152.894 10.7872 154.138 14.2447 157.181 14.2447C160.223 14.2447 161.468 10.6489 162.574 7.60638C163.266 5.53191 164.372 2.76596 165.34 2.76596C166.447 2.76596 167.415 5.53191 168.106 7.60638C169.213 10.7872 170.457 14.2447 173.5 14.2447C176.543 14.2447 177.787 10.6489 178.894 7.60638C179.585 5.53191 180.691 2.76596 181.66 2.76596C182.628 2.76596 183.734 5.53191 184.426 7.60638C185.532 10.7872 186.777 14.2447 189.819 14.2447C192.862 14.2447 194.106 10.6489 195.213 7.60638C195.904 5.53191 197.011 2.76596 197.979 2.76596C199.085 2.76596 200.053 5.53191 200.745 7.60638C201.851 10.7872 203.096 14.2447 206.138 14.2447C209.181 14.2447 210.426 10.6489 211.532 7.60638C212.223 5.53191 213.33 2.76596 214.298 2.76596C215.404 2.76596 216.372 5.53191 217.064 7.60638C218.17 10.7872 219.415 14.2447 222.457 14.2447C225.5 14.2447 226.745 10.6489 227.851 7.60638C228.543 5.53191 229.649 2.76596 230.617 2.76596C231.447 2.76596 232 2.21277 232 1.38298C232 0.553191 231.309 0 230.617 0Z" fill="#666"/>
</svg>
