<svg width="60" height="11" viewBox="0 0 60 11" fill="none" xmlns="http://www.w3.org/2000/svg">
<path d="M7.38561 4.20177L5.97292 0.00158691L4.56527 4.20177H0L3.69136 6.7979L2.283 10.996L5.9758 8.40406L9.66572 10.9967L8.2588 6.7993L11.948 4.20177H7.38561ZM4.50966 6.5436L4.50533 6.53731L4.51038 6.5408L4.50966 6.5436Z" fill="#FFC107"/>
<path d="M31.4109 4.20159L29.9997 0L28.5913 4.20229H24.0282L27.7174 6.79841L26.3098 10.9958L30.0004 8.40317L33.6903 10.9972L32.2841 6.79701L35.9733 4.20159H31.4109Z" fill="#FFC107"/>
<path d="M19.3958 4.20165L17.9896 0.00146484L16.5762 4.20165H12.0138L15.7066 6.79848L14.2946 10.9966L17.9896 8.40324L21.6795 10.9959L20.2726 6.79708L23.9596 4.20165H19.3958Z" fill="#FFC107"/>
<path d="M60 4.2017H55.4398L54.0249 0.00500488L52.6158 4.2017H48.0527L51.7441 6.79783L50.3292 11.0001L54.0249 8.40259L57.7192 10.9973L56.3058 6.79922L60 4.2017ZM55.5005 6.56239L55.4932 6.54143L55.5286 6.51628L55.5005 6.56239Z" fill="#FFC107"/>
<path d="M43.4253 4.20175L42.0119 0.00366211L40.6028 4.20175H36.0411L39.7282 6.79928L38.322 11.0002L42.0104 8.40334L45.7047 10.9974L44.2942 6.79998L47.9841 4.20175H43.4253ZM40.5436 6.55336L40.5421 6.53729L40.5479 6.54148L40.5436 6.55336Z" fill="#FFC107"/>
</svg>
