<svg width="60" height="11" viewBox="0 0 60 11" fill="none" xmlns="http://www.w3.org/2000/svg">
<path d="M29.994 0L31.2929 4.19786L35.5002 4.20116L32.0996 6.79802L33.3985 10.9996L29.9944 8.40521L26.5938 10.9996L27.8927 6.79802L24.4885 4.20116H28.6927" fill="#FFC107"/>
<path d="M42.2433 0L40.9432 4.19786L36.7374 4.20199L40.1365 6.79762L38.8403 10.9996L42.2433 8.40399L45.6423 10.9996L44.3461 6.79762L47.7491 4.20199H43.5473M42.2436 1.28585L43.2685 4.59854H46.5795L43.8991 6.64316L44.924 9.95171L42.2436 7.90708" fill="#FFC107"/>
<path d="M54.4946 0L53.1957 4.19786L48.9884 4.20116L52.389 6.79802L51.0901 10.9996L54.4942 8.40521L57.8948 10.9996L56.5959 6.79802L60.0001 4.20116H55.7959M54.4938 1.28913L55.5183 4.60182H58.8293L56.1489 6.64684L57.1734 9.9554L54.4931 7.91037L51.8127 9.9554L52.8372 6.64684L50.1568 4.60182H53.4678" fill="#FFC107"/>
<path d="M17.7497 0.000366211L19.0486 4.19823L23.2559 4.20152L19.8553 6.79839L21.1542 11L17.7501 8.40558L14.3495 11L15.6484 6.79839L12.2443 4.20152H16.4484" fill="#FFC107"/>
<path d="M5.50543 0.000244141L6.80434 4.1981L11.0117 4.2014L7.61105 6.79827L8.90996 10.9998L5.50583 8.40546L2.10523 10.9998L3.40414 6.79825L0 4.20138H4.20416" fill="#FFC107"/>
</svg>
